<svg width="1294" height="277" viewBox="0 0 1294 277" fill="none" xmlns="http://www.w3.org/2000/svg">
<rect width="277" height="277" rx="67" fill="#F02A00"/>
<path d="M216.942 60.8262C216.565 60.8262 216.188 60.8262 215.811 61.0159L138.679 86.6262V215.247C139.433 215.247 140.187 215.057 140.753 214.867L218.262 189.257C219.771 188.688 220.903 187.17 220.714 185.463V64.81C220.903 62.5335 219.017 60.8262 216.942 60.8262Z" fill="white"/>
<path d="M138.49 86.4399L61.3575 60.8296C59.283 60.0708 57.2086 61.209 56.4542 63.2958C56.4542 63.4855 56.2656 63.6752 56.2656 63.8649C56.2656 64.0546 56.2656 64.0546 56.2656 64.2443C56.2656 64.434 56.2656 64.434 56.2656 64.6237V185.466C56.2656 186.794 57.02 188.122 58.1515 188.881C58.3401 189.071 58.5287 189.071 58.7173 189.261L136.415 214.871C136.604 214.871 136.792 214.871 136.792 215.061H136.981C137.547 215.061 137.924 215.25 138.49 215.25V86.4399Z" fill="url(#paint0_linear_13850_3862)"/>
<path d="M423.079 222.163C414.721 222.163 406.363 221.049 398.562 218.263C390.761 215.477 384.075 211.019 377.945 205.447C371.816 199.875 367.358 192.631 364.015 183.716C360.672 175.358 359 164.771 359 153.069C359 141.925 360.672 131.895 364.015 123.537C367.358 115.179 371.816 107.935 377.388 101.806C382.96 95.6765 389.647 91.2188 396.89 88.4328C404.134 85.0895 412.492 83.9751 420.85 83.9751C434.223 83.9751 445.925 87.3184 454.84 94.0049C463.756 100.691 470.442 109.607 474.343 120.751C478.243 131.895 479.915 143.597 479.915 156.412V162.542H392.99C393.547 173.686 397.448 182.044 403.577 186.502C409.706 191.517 418.064 193.746 427.537 193.746C435.895 193.746 443.696 192.631 450.383 189.845C457.069 187.059 461.527 184.273 463.756 182.044L472.671 209.905C469.328 212.691 465.427 214.362 461.527 216.034C457.626 217.706 451.497 219.377 444.253 220.492C437.01 221.606 429.766 222.163 423.079 222.163ZM394.104 136.91H444.253C443.696 130.781 442.024 125.766 439.238 121.308C436.452 117.408 433.109 114.622 429.209 112.95C425.308 111.278 421.965 110.721 419.736 110.721C413.607 110.721 408.035 112.95 403.02 117.408C398.005 121.865 394.662 128.552 394.104 136.91Z" fill="white"/>
<path d="M527.835 222.163C520.034 222.163 512.79 220.492 507.218 217.148C501.646 213.805 497.746 209.905 495.517 204.333C493.288 198.76 492.173 193.188 492.173 186.502V55H526.163V179.815C526.163 184.83 527.278 187.616 528.949 189.845C530.621 191.517 533.407 192.631 537.308 192.631C540.651 192.631 544.551 192.074 548.452 190.402L554.581 216.034C552.909 217.148 549.566 218.263 544.551 219.934C540.094 221.606 534.521 222.163 527.835 222.163Z" fill="white"/>
<path d="M566.84 219.377V86.7609H598.044L599.158 96.7907C603.058 92.8902 608.073 90.1042 614.203 87.3181C620.332 84.5321 625.904 83.4176 632.033 83.4176C638.163 83.4176 644.292 84.532 650.421 86.2036C656.551 87.8753 662.123 91.2186 667.695 96.2335C673.824 92.333 680.511 89.5469 687.755 86.7609C694.998 84.5321 702.799 82.8604 711.157 82.8604C725.645 82.8604 736.789 85.6465 744.59 91.2186C752.391 96.7907 757.406 104.035 760.192 112.393C762.421 121.308 763.535 130.223 763.535 139.139V218.82H729.545V140.81C729.545 131.895 727.874 124.651 724.53 119.636C721.187 114.064 715.058 111.278 706.143 111.278C701.685 111.278 697.227 112.393 692.212 114.622C687.197 116.85 683.297 119.636 680.511 121.865C681.625 128.552 682.182 134.124 682.182 138.582V218.82H648.193V140.81C648.193 134.124 647.635 128.552 645.964 124.651C644.292 120.194 642.063 117.408 638.72 114.622C635.377 112.393 631.476 111.278 627.576 111.278C622.561 111.278 617.546 112.393 613.088 115.179C608.631 117.965 604.73 120.751 601.387 124.094V218.263H566.84V219.377Z" fill="white"/>
<path d="M842.102 222.163C833.744 222.163 825.386 221.049 817.585 218.263C809.784 215.477 803.097 211.019 796.968 205.447C790.838 199.875 786.381 192.631 783.038 183.716C779.694 175.358 778.023 164.771 778.023 153.069C778.023 141.925 779.694 131.895 783.038 123.537C786.381 115.179 790.838 107.935 796.411 101.806C801.983 95.6765 808.669 91.2188 815.913 88.4328C823.157 85.0895 831.515 83.9751 839.873 83.9751C853.246 83.9751 864.947 87.3184 873.863 94.0049C882.778 100.691 889.465 109.607 893.365 120.751C897.266 131.895 898.937 143.597 898.937 156.412V162.542H813.127C813.684 173.686 817.585 182.044 823.714 186.502C829.843 191.517 838.201 193.746 847.674 193.746C856.032 193.746 863.833 192.631 870.52 189.845C877.206 187.059 881.664 184.273 883.893 182.044L892.808 209.905C889.465 212.691 885.564 214.362 881.664 216.034C877.763 217.706 871.634 219.377 864.39 220.492C856.032 221.606 848.788 222.163 842.102 222.163ZM813.127 136.91H863.276C862.719 130.781 861.047 125.766 858.261 121.308C855.475 117.408 852.132 114.622 848.231 112.95C844.331 111.278 840.987 110.721 838.759 110.721C832.629 110.721 827.057 112.95 822.042 117.408C817.027 121.865 813.684 128.552 813.127 136.91Z" fill="white"/>
<path d="M912.311 219.377V86.7611H943.514L945.186 97.3481C950.758 92.8904 956.33 89.5472 963.017 87.3184C969.703 85.0895 976.39 83.9751 983.076 83.9751C993.663 83.9751 1003.14 86.2039 1010.38 91.2188C1017.62 96.2337 1023.2 102.92 1025.98 112.393C1028.77 121.865 1030.44 131.338 1030.44 141.925V220.492H996.449V144.711C996.449 134.681 994.221 126.88 990.32 121.308C985.862 115.736 980.29 112.95 972.489 112.95C966.917 112.95 962.46 114.064 958.002 116.85C953.544 119.636 949.644 122.423 946.3 125.766V219.934H912.311V219.377Z" fill="white"/>
<path d="M1099.53 222.163C1083.93 222.163 1072.23 217.706 1064.43 208.233C1056.07 198.76 1052.17 184.83 1052.17 165.885V86.7609H1086.16V161.984C1086.16 170.9 1087.83 178.701 1091.18 184.273C1094.52 189.845 1100.09 192.631 1108.45 192.631C1115.14 192.631 1120.71 191.517 1125.17 188.731C1129.62 185.945 1133.52 183.716 1136.31 180.93V86.2036H1170.3V218.82H1139.1L1137.98 208.233C1131.85 213.248 1125.72 216.591 1119.04 218.82C1112.35 221.049 1105.66 222.163 1099.53 222.163Z" fill="white"/>
<path d="M1241.62 222.163C1231.59 222.163 1222.12 221.049 1213.2 218.82C1204.29 216.591 1197.6 213.805 1193.14 211.576C1188.69 208.79 1185.34 206.561 1183.67 204.89L1195.93 178.701C1199.27 181.487 1203.17 184.83 1208.75 187.616C1214.32 190.402 1219.89 192.631 1225.46 193.745C1231.04 194.86 1236.05 195.417 1241.06 195.417C1249.42 195.417 1255 194.303 1258.34 192.074C1261.68 189.845 1263.35 186.502 1263.35 182.601C1263.35 178.701 1261.12 175.357 1257.22 172.571C1253.32 169.785 1244.97 166.999 1232.71 164.213C1221.56 161.984 1212.65 158.641 1205.96 154.741C1199.27 150.84 1194.82 145.825 1192.59 140.81C1190.36 135.796 1189.24 129.666 1189.24 122.98C1189.24 111.278 1193.7 101.806 1202.06 94.5617C1210.98 87.3179 1223.79 83.4175 1241.62 83.4175C1253.32 83.4175 1263.35 85.0891 1272.83 88.4324C1282.3 91.7757 1288.43 94.5617 1292.33 97.905L1280.63 122.422C1277.28 119.636 1272.27 116.85 1265.02 114.064C1258.34 111.278 1250.54 109.607 1241.62 109.607C1233.82 109.607 1228.25 110.721 1225.46 113.507C1222.68 116.293 1221.01 119.079 1221.01 122.98C1221.01 127.437 1222.68 130.223 1226.58 132.452C1230.48 134.681 1237.16 136.353 1247.75 138.582C1259.45 140.81 1268.37 144.154 1275.61 148.054C1282.86 151.955 1287.31 156.97 1290.1 162.542C1292.89 168.671 1294 174.8 1294 180.93C1294 191.517 1291.21 199.875 1285.08 206.561C1278.96 213.248 1272.27 217.148 1263.91 219.377C1256.67 221.606 1248.87 222.163 1241.62 222.163Z" fill="white"/>
<defs>
<linearGradient id="paint0_linear_13850_3862" x1="56.0807" y1="120.612" x2="330.495" y2="232.716" gradientUnits="userSpaceOnUse">
<stop stop-color="white"/>
<stop offset="1" stop-color="#E1251B"/>
</linearGradient>
</defs>
</svg>
