<svg viewBox="0 0 1294 277" fill="none" xmlns="http://www.w3.org/2000/svg">
<path d="M210.52 0H66.48C29.8014 0 0.191034 29.8014 0 66.48V210.52C0 247.199 29.8014 276.809 66.48 277H210.52C247.199 277 276.809 247.199 277 210.52V66.48C276.809 29.8014 247.199 0.191034 210.52 0ZM223.319 190.079C223.319 191.799 222.364 193.136 220.836 193.9L142.13 219.69C141.366 219.881 140.601 220.072 140.028 220.072C139.455 220.072 139.073 220.072 138.5 219.881H138.309C137.927 219.881 137.545 219.69 137.354 219.69L59.0297 193.9C58.8386 193.9 58.4566 193.709 58.2655 193.518C57.1193 192.754 56.3552 191.608 56.3552 190.079V68.5814V68.3904C56.3552 68.1993 56.3552 68.1993 56.3552 68.0083C56.3552 67.8172 56.3552 67.6262 56.5462 67.4352C57.1193 65.9069 58.4566 64.7607 60.3669 64.7607C60.749 64.7607 61.131 64.7607 61.5131 64.9517L96.0904 76.4138L139.646 90.7414L217.779 64.9517C218.161 64.7607 218.543 64.7607 218.926 64.7607C221.218 64.7607 222.937 66.48 222.937 68.7724V190.079H223.319Z" fill="#F02A00"/>
<path d="M56.3552 190.079C56.3552 191.608 57.1193 192.754 58.2655 193.518C57.1193 192.754 56.3552 191.417 56.3552 190.079Z" fill="#F8C4AB"/>
<path d="M219.308 64.5698C218.926 64.5698 218.543 64.5698 218.161 64.7608L140.028 90.5504V220.072C140.792 220.072 141.557 219.881 142.13 219.69L220.645 193.9C222.173 193.327 223.319 191.799 223.128 190.079V68.5815C223.319 66.2891 221.409 64.5698 219.308 64.5698Z" fill="white"/>
<path d="M61.513 64.7606L139.646 90.5502L96.0903 76.2227L61.513 64.7606C61.131 64.5696 60.7489 64.5696 60.3668 64.5696C58.6475 64.5696 57.1192 65.7158 56.5461 67.244C57.3103 65.1427 59.4117 63.9965 61.513 64.7606Z" fill="#F02A00"/>
<path d="M61.513 64.7606L139.646 90.5502L96.0903 76.2227L61.513 64.7606C61.131 64.5696 60.7489 64.5696 60.3668 64.5696C58.6475 64.5696 57.1192 65.7158 56.5461 67.244C57.3103 65.1427 59.4117 63.9965 61.513 64.7606Z" fill="url(#paint0_linear_13781_3742)"/>
<path d="M58.8386 193.9C58.6475 193.9 58.4565 193.709 58.2655 193.518C58.6475 193.709 58.8386 193.9 58.8386 193.9L136.972 219.69C137.354 219.881 137.736 219.881 137.927 219.881C137.736 219.881 137.545 219.881 137.545 219.69L58.8386 193.9Z" fill="#F02A00"/>
<path d="M58.8386 193.9C58.6475 193.9 58.4565 193.709 58.2655 193.518C58.6475 193.709 58.8386 193.9 58.8386 193.9L136.972 219.69C137.354 219.881 137.736 219.881 137.927 219.881C137.736 219.881 137.545 219.881 137.545 219.69L58.8386 193.9Z" fill="url(#paint1_linear_13781_3742)"/>
<path d="M56.3552 67.8171C56.3552 67.6261 56.3552 67.4351 56.5462 67.244C56.5462 67.4351 56.3552 67.6261 56.3552 67.8171Z" fill="#F02A00"/>
<path d="M56.3552 67.8171C56.3552 67.6261 56.3552 67.4351 56.5462 67.244C56.5462 67.4351 56.3552 67.6261 56.3552 67.8171Z" fill="url(#paint2_linear_13781_3742)"/>
<path d="M139.837 219.881C139.264 219.881 138.882 219.881 138.309 219.69C138.882 219.881 139.264 219.881 139.837 219.881Z" fill="#F02A00"/>
<path d="M139.837 219.881C139.264 219.881 138.882 219.881 138.309 219.69C138.882 219.881 139.264 219.881 139.837 219.881Z" fill="url(#paint3_linear_13781_3742)"/>
<path d="M139.837 90.3596L61.7041 64.5699C59.6027 63.8058 57.5013 64.952 56.7372 67.0534C56.7372 67.2444 56.5461 67.4354 56.5461 67.6265C56.5461 67.8175 56.5461 67.8175 56.5461 68.0085C56.5461 68.1996 56.5461 68.1996 56.5461 68.3906V190.08C56.5461 191.417 57.3103 192.754 58.4565 193.518C58.6475 193.709 58.8386 193.709 59.0296 193.9L137.736 219.69C137.927 219.69 138.118 219.69 138.118 219.881H138.309C138.882 219.881 139.264 220.072 139.837 220.072V90.3596Z" fill="#F8C4AB"/>
<path d="M139.837 90.3596L61.7041 64.5699C59.6027 63.8058 57.5013 64.952 56.7372 67.0534C56.7372 67.2444 56.5461 67.4354 56.5461 67.6265C56.5461 67.8175 56.5461 67.8175 56.5461 68.0085C56.5461 68.1996 56.5461 68.1996 56.5461 68.3906V190.08C56.5461 191.417 57.3103 192.754 58.4565 193.518C58.6475 193.709 58.8386 193.709 59.0296 193.9L137.736 219.69C137.927 219.69 138.118 219.69 138.118 219.881H138.309C138.882 219.881 139.264 220.072 139.837 220.072V90.3596Z" fill="url(#paint4_linear_13781_3742)"/>
<path d="M423.079 222.163C414.721 222.163 406.363 221.049 398.562 218.263C390.761 215.477 384.075 211.019 377.945 205.447C371.816 199.875 367.358 192.631 364.015 183.716C360.672 175.358 359 164.771 359 153.069C359 141.925 360.672 131.895 364.015 123.537C367.358 115.179 371.816 107.935 377.388 101.806C382.96 95.6764 389.647 91.2187 396.89 88.4327C404.134 85.0894 412.492 83.975 420.85 83.975C434.223 83.975 445.925 87.3183 454.84 94.0048C463.756 100.691 470.442 109.607 474.343 120.751C478.243 131.895 479.915 143.597 479.915 156.412V162.542H392.99C393.547 173.686 397.448 182.044 403.577 186.502C409.706 191.517 418.064 193.746 427.537 193.746C435.895 193.746 443.696 192.631 450.383 189.845C457.069 187.059 461.527 184.273 463.756 182.044L472.671 209.905C469.328 212.691 465.427 214.362 461.527 216.034C457.626 217.706 451.497 219.377 444.253 220.492C437.01 221.606 429.766 222.163 423.079 222.163ZM394.104 136.91H444.253C443.696 130.781 442.024 125.766 439.238 121.308C436.452 117.408 433.109 114.622 429.209 112.95C425.308 111.278 421.965 110.721 419.736 110.721C413.607 110.721 408.035 112.95 403.02 117.408C398.005 121.865 394.662 128.552 394.104 136.91Z" fill="#F02A00"/>
<path d="M527.835 222.163C520.034 222.163 512.79 220.492 507.218 217.148C501.646 213.805 497.746 209.905 495.517 204.333C493.288 198.76 492.173 193.188 492.173 186.502V55H526.163V179.815C526.163 184.83 527.278 187.616 528.949 189.845C530.621 191.517 533.407 192.631 537.308 192.631C540.651 192.631 544.551 192.074 548.452 190.402L554.581 216.034C552.909 217.148 549.566 218.263 544.551 219.934C540.094 221.606 534.521 222.163 527.835 222.163Z" fill="#F02A00"/>
<path d="M566.84 219.377V86.761H598.044L599.158 96.7908C603.058 92.8903 608.073 90.1043 614.203 87.3182C620.332 84.5322 625.904 83.4177 632.033 83.4177C638.163 83.4177 644.292 84.5321 650.421 86.2037C656.551 87.8754 662.123 91.2187 667.695 96.2336C673.824 92.3331 680.511 89.547 687.755 86.761C694.998 84.5322 702.799 82.8605 711.157 82.8605C725.645 82.8605 736.789 85.6466 744.59 91.2187C752.391 96.7908 757.406 104.035 760.192 112.393C762.421 121.308 763.535 130.223 763.535 139.139V218.82H729.545V140.81C729.545 131.895 727.874 124.651 724.53 119.636C721.187 114.064 715.058 111.278 706.143 111.278C701.685 111.278 697.227 112.393 692.212 114.622C687.197 116.85 683.297 119.636 680.511 121.865C681.625 128.552 682.182 134.124 682.182 138.582V218.82H648.193V140.81C648.193 134.124 647.635 128.552 645.964 124.651C644.292 120.194 642.063 117.408 638.72 114.622C635.377 112.393 631.476 111.278 627.576 111.278C622.561 111.278 617.546 112.393 613.088 115.179C608.631 117.965 604.73 120.751 601.387 124.094V218.263H566.84V219.377Z" fill="#F02A00"/>
<path d="M842.102 222.163C833.744 222.163 825.386 221.049 817.585 218.263C809.784 215.477 803.097 211.019 796.968 205.447C790.838 199.875 786.381 192.631 783.038 183.716C779.694 175.358 778.023 164.771 778.023 153.069C778.023 141.925 779.694 131.895 783.038 123.537C786.381 115.179 790.838 107.935 796.411 101.806C801.983 95.6764 808.669 91.2187 815.913 88.4327C823.157 85.0894 831.515 83.975 839.873 83.975C853.246 83.975 864.947 87.3183 873.863 94.0048C882.778 100.691 889.465 109.607 893.365 120.751C897.266 131.895 898.937 143.597 898.937 156.412V162.542H813.127C813.684 173.686 817.585 182.044 823.714 186.502C829.843 191.517 838.201 193.746 847.674 193.746C856.032 193.746 863.833 192.631 870.52 189.845C877.206 187.059 881.664 184.273 883.893 182.044L892.808 209.905C889.465 212.691 885.564 214.362 881.664 216.034C877.763 217.706 871.634 219.377 864.39 220.492C856.032 221.606 848.788 222.163 842.102 222.163ZM813.127 136.91H863.276C862.719 130.781 861.047 125.766 858.261 121.308C855.475 117.408 852.132 114.622 848.231 112.95C844.331 111.278 840.987 110.721 838.759 110.721C832.629 110.721 827.057 112.95 822.042 117.408C817.027 121.865 813.684 128.552 813.127 136.91Z" fill="#F02A00"/>
<path d="M912.311 219.377V86.761H943.514L945.186 97.348C950.758 92.8903 956.33 89.5471 963.017 87.3183C969.703 85.0894 976.39 83.975 983.076 83.975C993.663 83.975 1003.14 86.2038 1010.38 91.2187C1017.62 96.2336 1023.2 102.92 1025.98 112.393C1028.77 121.865 1030.44 131.338 1030.44 141.925V220.492H996.449V144.711C996.449 134.681 994.221 126.88 990.32 121.308C985.862 115.736 980.29 112.95 972.489 112.95C966.917 112.95 962.46 114.064 958.002 116.85C953.544 119.636 949.644 122.423 946.3 125.766V219.934H912.311V219.377Z" fill="#F02A00"/>
<path d="M1099.53 222.163C1083.93 222.163 1072.23 217.706 1064.43 208.233C1056.07 198.76 1052.17 184.83 1052.17 165.885V86.761H1086.16V161.984C1086.16 170.9 1087.83 178.701 1091.18 184.273C1094.52 189.845 1100.09 192.631 1108.45 192.631C1115.14 192.631 1120.71 191.517 1125.17 188.731C1129.62 185.945 1133.52 183.716 1136.31 180.93V86.2037H1170.3V218.82H1139.1L1137.98 208.233C1131.85 213.248 1125.72 216.591 1119.04 218.82C1112.35 221.049 1105.66 222.163 1099.53 222.163Z" fill="#F02A00"/>
<path d="M1241.62 222.163C1231.59 222.163 1222.12 221.049 1213.2 218.82C1204.29 216.591 1197.6 213.805 1193.14 211.576C1188.69 208.79 1185.34 206.561 1183.67 204.89L1195.93 178.701C1199.27 181.487 1203.17 184.83 1208.75 187.616C1214.32 190.402 1219.89 192.631 1225.46 193.745C1231.04 194.86 1236.05 195.417 1241.06 195.417C1249.42 195.417 1255 194.303 1258.34 192.074C1261.68 189.845 1263.35 186.502 1263.35 182.601C1263.35 178.701 1261.12 175.357 1257.22 172.571C1253.32 169.785 1244.97 166.999 1232.71 164.213C1221.56 161.984 1212.65 158.641 1205.96 154.741C1199.27 150.84 1194.82 145.825 1192.59 140.81C1190.36 135.796 1189.24 129.666 1189.24 122.98C1189.24 111.278 1193.7 101.806 1202.06 94.5619C1210.98 87.3181 1223.79 83.4177 1241.62 83.4177C1253.32 83.4177 1263.35 85.0893 1272.83 88.4326C1282.3 91.7759 1288.43 94.5619 1292.33 97.9052L1280.63 122.422C1277.28 119.636 1272.27 116.85 1265.02 114.064C1258.34 111.278 1250.54 109.607 1241.62 109.607C1233.82 109.607 1228.25 110.721 1225.46 113.507C1222.68 116.293 1221.01 119.079 1221.01 122.98C1221.01 127.437 1222.68 130.223 1226.58 132.452C1230.48 134.681 1237.16 136.353 1247.75 138.582C1259.45 140.81 1268.37 144.154 1275.61 148.054C1282.86 151.955 1287.31 156.97 1290.1 162.542C1292.89 168.671 1294 174.8 1294 180.93C1294 191.517 1291.21 199.875 1285.08 206.561C1278.96 213.248 1272.27 217.148 1263.91 219.377C1256.67 221.606 1248.87 222.163 1241.62 222.163Z" fill="#F02A00"/>
<defs>
<linearGradient id="paint0_linear_13781_3742" x1="78.4401" y1="71.0378" x2="355.943" y2="185.076" gradientUnits="userSpaceOnUse">
<stop stop-color="white"/>
<stop offset="1" stop-color="#E1251B"/>
</linearGradient>
<linearGradient id="paint1_linear_13781_3742" x1="33.4979" y1="180.401" x2="311.001" y2="294.44" gradientUnits="userSpaceOnUse">
<stop stop-color="white"/>
<stop offset="1" stop-color="#E1251B"/>
</linearGradient>
<linearGradient id="paint2_linear_13781_3742" x1="76.3834" y1="76.042" x2="353.884" y2="190.076" gradientUnits="userSpaceOnUse">
<stop stop-color="white"/>
<stop offset="1" stop-color="#E1251B"/>
</linearGradient>
<linearGradient id="paint3_linear_13781_3742" x1="34.7528" y1="177.344" x2="312.261" y2="291.378" gradientUnits="userSpaceOnUse">
<stop stop-color="white"/>
<stop offset="1" stop-color="#E1251B"/>
</linearGradient>
<linearGradient id="paint4_linear_13781_3742" x1="56.3589" y1="124.771" x2="333.862" y2="238.809" gradientUnits="userSpaceOnUse">
<stop stop-color="white"/>
<stop offset="1" stop-color="#E1251B"/>
</linearGradient>
</defs>
</svg>
